<svg width="434" height="447" viewBox="0 0 434 447" fill="none" xmlns="http://www.w3.org/2000/svg">
<path fill-rule="evenodd" clip-rule="evenodd" d="M102.694 26.9707C100.465 29.356 100.338 30.423 100.352 46.5994C100.359 56.0085 100.64 64.7349 100.975 65.9908C102.053 70.0304 106.119 70.8795 123.697 70.7378C138.394 70.6186 140.471 70.3717 143.191 68.4244L146.236 66.2442V48.2128C146.236 23.2983 147.625 24.7443 123.502 24.5758C105.435 24.4502 105.001 24.4996 102.694 26.9707ZM7.32351 56.6354C4.91756 58.5967 4.80336 59.2998 4.80336 72.1634C4.80336 82.719 5.15027 85.9802 6.40448 87.2222C7.61706 88.4224 11.3445 88.8743 21.7549 89.0815C35.1414 89.3488 35.5598 89.2876 37.5825 86.7767C39.4388 84.4709 39.6224 82.7855 39.3096 70.9106C38.8688 54.1267 39.3416 54.5818 22.3303 54.5818C11.6209 54.5818 9.48396 54.8738 7.32351 56.6354ZM154.775 89.6311C149.491 91.3745 140.899 95.388 140.365 96.4614C139.297 97.5349 139.297 97.5349 138.764 99.1451C138.189 100.88 138.23 100.755 137.65 102.62C136.563 104.826 136.047 113.715 135.611 137.777C135.048 168.869 134.944 170.117 132.606 173.899C128.673 180.258 124.666 181.253 103.005 181.253C88.2356 181.253 83.4237 181.62 79.8105 183.025C72.9064 185.709 68.8674 189.193 66.0558 194.884L63.5111 200.039V241.905C63.5111 282.753 63.5666 283.875 65.8146 288.065C68.3838 292.853 72.3258 296.701 77.9212 299.884C81.2067 301.753 84.316 302.075 103.698 302.552C123.769 303.045 125.948 303.285 128.08 305.229C132.822 309.552 132.872 310.007 133.427 354.084L133.96 396.487L136.837 404.41C144.084 424.367 159.166 438.585 179.859 444.965C185.878 446.822 192.133 446.941 283.932 446.941H381.6L389.072 444.463C396.575 441.976 406.669 436.445 412.458 431.651C419.943 425.453 427.605 413.413 431.422 401.854L433.903 394.34V296.116V197.892L431.431 190.47C426.028 174.251 418.573 163.983 406.113 155.602C390.609 145.173 392.407 145.412 324.494 144.774C260.155 144.17 260.826 144.236 257.7 138.158C256.723 136.259 256.177 131.818 256.173 125.754C256.16 105.659 252.798 97.3795 242.443 91.9391L236.722 88.9334L196.549 89.0182C174.454 89.0643 155.656 89.3402 154.775 89.6311ZM51.2358 94.0346C48.8043 95.2551 46.6609 97.5835 45.0982 100.701C42.8246 105.234 42.6965 106.752 42.6965 129.077C42.6965 150.386 42.9004 153.088 44.8089 157.052C48.579 164.886 49.6988 165.151 78.9918 165.151C107.681 165.151 109.945 164.713 113.726 158.424C115.671 155.191 115.796 153.123 115.549 128.282C115.173 90.7336 116.595 92.1527 79.3611 92.156C58.2797 92.157 54.4648 92.4114 51.2358 94.0346ZM2.6205 182.815C0.0789904 185.37 0 185.922 0 200.993C0 209.544 0.439775 217.702 0.977751 219.125C2.63331 223.504 6.80155 224.388 23.9954 224.006C44.7086 223.544 43.7639 224.609 43.7639 201.718C43.7639 179.139 44.8143 180.18 22.0314 180.18C5.62633 180.18 5.18016 180.241 2.6205 182.815Z" fill="#E89F32"/>
<path fill-rule="evenodd" clip-rule="evenodd" d="M102.694 26.9707C100.465 29.356 100.338 30.423 100.352 46.5994C100.359 56.0085 100.64 64.7349 100.975 65.9908C102.053 70.0304 106.119 70.8795 123.697 70.7378C138.394 70.6186 140.471 70.3717 143.191 68.4244L146.236 66.2442V48.2128C146.236 23.2983 147.625 24.7443 123.502 24.5758C105.435 24.4502 105.001 24.4996 102.694 26.9707ZM7.32351 56.6354C4.91756 58.5967 4.80336 59.2998 4.80336 72.1634C4.80336 82.719 5.15027 85.9802 6.40448 87.2222C7.61706 88.4224 11.3445 88.8743 21.7549 89.0815C35.1414 89.3488 35.5598 89.2876 37.5825 86.7767C39.4388 84.4709 39.6224 82.7855 39.3096 70.9106C38.8688 54.1267 39.3416 54.5818 22.3303 54.5818C11.6209 54.5818 9.48396 54.8738 7.32351 56.6354ZM154.775 89.6311C149.491 91.3745 140.899 95.388 140.365 96.4614C139.297 97.5349 139.297 97.5349 138.764 99.1451C138.189 100.88 138.23 100.755 137.65 102.62C136.563 104.826 136.047 113.715 135.611 137.777C135.048 168.869 134.944 170.117 132.606 173.899C128.673 180.258 124.666 181.253 103.005 181.253C88.2356 181.253 83.4237 181.62 79.8105 183.025C72.9064 185.709 68.8674 189.193 66.0558 194.884L63.5111 200.039V241.905C63.5111 282.753 63.5666 283.875 65.8146 288.065C68.3838 292.853 72.3258 296.701 77.9212 299.884C81.2067 301.753 84.316 302.075 103.698 302.552C123.769 303.045 125.948 303.285 128.08 305.229C132.822 309.552 132.872 310.007 133.427 354.084L133.96 396.487L136.837 404.41C144.084 424.367 159.166 438.585 179.859 444.965C185.878 446.822 192.133 446.941 283.932 446.941H381.6L389.072 444.463C396.575 441.976 406.669 436.445 412.458 431.651C419.943 425.453 427.605 413.413 431.422 401.854L433.903 394.34V296.116V197.892L431.431 190.47C426.028 174.251 418.573 163.983 406.113 155.602C390.609 145.173 392.407 145.412 324.494 144.774C260.155 144.17 260.826 144.236 257.7 138.158C256.723 136.259 256.177 131.818 256.173 125.754C256.16 105.659 252.798 97.3795 242.443 91.9391L236.722 88.9334L196.549 89.0182C174.454 89.0643 155.656 89.3402 154.775 89.6311ZM51.2358 94.0346C48.8043 95.2551 46.6609 97.5835 45.0982 100.701C42.8246 105.234 42.6965 106.752 42.6965 129.077C42.6965 150.386 42.9004 153.088 44.8089 157.052C48.579 164.886 49.6988 165.151 78.9918 165.151C107.681 165.151 109.945 164.713 113.726 158.424C115.671 155.191 115.796 153.123 115.549 128.282C115.173 90.7336 116.595 92.1527 79.3611 92.156C58.2797 92.157 54.4648 92.4114 51.2358 94.0346ZM2.6205 182.815C0.0789904 185.37 0 185.922 0 200.993C0 209.544 0.439775 217.702 0.977751 219.125C2.63331 223.504 6.80155 224.388 23.9954 224.006C44.7086 223.544 43.7639 224.609 43.7639 201.718C43.7639 179.139 44.8143 180.18 22.0314 180.18C5.62633 180.18 5.18016 180.241 2.6205 182.815Z" fill="#E89F32"/>
<path d="M284.312 285.324L337.985 217.336H367.418V373.327H334.197V269.333L284.312 333.187L234.534 269.768V373.327H201.205V217.336H231.18L284.312 285.324Z" fill="white"/>
</svg>
