<svg width="797" height="355" viewBox="0 0 797 355" fill="none" xmlns="http://www.w3.org/2000/svg">
<path fill-rule="evenodd" clip-rule="evenodd" d="M70.9864 18.6442C69.4458 20.2931 69.358 21.0307 69.3676 32.213C69.3727 38.7173 69.5668 44.7496 69.7985 45.6178C70.5437 48.4103 73.3541 48.9972 85.5049 48.8993C95.6643 48.8169 97.0994 48.6462 98.9802 47.3001L101.085 45.793V33.3283C101.085 16.1056 102.045 17.1051 85.3699 16.9886C72.8812 16.9018 72.5816 16.9359 70.9864 18.6442ZM5.06234 39.1507C3.39924 40.5064 3.32029 40.9925 3.32029 49.8848C3.32029 57.1816 3.56009 59.436 4.42706 60.2946C5.26525 61.1242 7.84179 61.4366 15.038 61.5798C24.2913 61.7646 24.5805 61.7223 25.9787 59.9866C27.2618 58.3926 27.3887 57.2276 27.1725 49.0187C26.8678 37.4164 27.1947 37.7311 15.4357 37.7311C8.0329 37.7311 6.55573 37.9329 5.06234 39.1507ZM106.987 61.9598C103.335 63.1649 97.3953 65.9393 97.0264 66.6814C96.2885 67.4235 96.2885 67.4235 95.9196 68.5366C95.522 69.7361 95.5507 69.6497 95.15 70.9389C94.3982 72.4638 94.0418 78.6082 93.74 95.2418C93.3512 116.735 93.2796 117.597 91.663 120.212C88.9448 124.608 86.1749 125.296 71.2019 125.296C60.9923 125.296 57.6661 125.55 55.1685 126.521C50.3962 128.376 47.6042 130.784 45.6607 134.719L43.9017 138.282V167.223C43.9017 195.46 43.94 196.236 45.4939 199.132C47.2699 202.442 49.9948 205.102 53.8625 207.302C56.1336 208.594 58.283 208.817 71.6807 209.146C85.5544 209.488 87.0611 209.653 88.5345 210.997C91.8128 213.985 91.8467 214.3 92.2304 244.77L92.5993 274.082L94.5878 279.559C99.597 293.355 110.023 303.183 124.327 307.594C128.487 308.877 132.811 308.959 196.266 308.959H263.779L268.944 307.246C274.13 305.527 281.108 301.704 285.109 298.39C290.283 294.105 295.579 285.782 298.218 277.792L299.933 272.597V204.698V136.798L298.224 131.667C294.489 120.455 289.336 113.357 280.723 107.564C270.006 100.355 271.249 100.519 224.304 100.079C179.831 99.6608 180.294 99.7068 178.134 95.5052C177.459 94.1925 177.081 91.1225 177.078 86.9306C177.069 73.0397 174.745 67.3161 167.587 63.5552L163.633 61.4774L135.863 61.536C120.59 61.568 107.596 61.7587 106.987 61.9598ZM35.4165 65.0038C33.7357 65.8475 32.2541 67.4571 31.1739 69.612C29.6023 72.7458 29.5137 73.7951 29.5137 89.228C29.5137 103.958 29.6547 105.826 30.9739 108.566C33.58 113.981 34.354 114.165 54.6026 114.165C74.4336 114.165 75.9986 113.862 78.6128 109.515C79.9571 107.28 80.0434 105.85 79.8723 88.6781C79.6125 62.7219 80.5953 63.7029 54.8579 63.7051C40.2855 63.7059 37.6484 63.8817 35.4165 65.0038ZM1.81141 126.375C0.0546017 128.142 0 128.523 0 138.942C0 144.852 0.303992 150.492 0.675865 151.475C1.82026 154.503 4.70153 155.114 16.5867 154.85C30.9046 154.531 30.2516 155.267 30.2516 139.443C30.2516 123.835 30.9776 124.554 15.2291 124.554C3.88917 124.554 3.58075 124.596 1.81141 126.375Z" fill="#E89F32"/>
<path fill-rule="evenodd" clip-rule="evenodd" d="M70.9864 18.6442C69.4458 20.2931 69.358 21.0307 69.3676 32.213C69.3727 38.7173 69.5668 44.7496 69.7985 45.6178C70.5437 48.4103 73.3541 48.9972 85.5049 48.8993C95.6643 48.8169 97.0994 48.6462 98.9802 47.3001L101.085 45.793V33.3283C101.085 16.1056 102.045 17.1051 85.3699 16.9886C72.8812 16.9018 72.5816 16.9359 70.9864 18.6442ZM5.06234 39.1507C3.39924 40.5064 3.32029 40.9925 3.32029 49.8848C3.32029 57.1816 3.56009 59.436 4.42706 60.2946C5.26525 61.1242 7.84179 61.4366 15.038 61.5798C24.2913 61.7646 24.5805 61.7223 25.9787 59.9866C27.2618 58.3926 27.3887 57.2276 27.1725 49.0187C26.8678 37.4164 27.1947 37.7311 15.4357 37.7311C8.0329 37.7311 6.55573 37.9329 5.06234 39.1507ZM106.987 61.9598C103.335 63.1649 97.3953 65.9393 97.0264 66.6814C96.2885 67.4235 96.2885 67.4235 95.9196 68.5366C95.522 69.7361 95.5507 69.6497 95.15 70.9389C94.3982 72.4638 94.0418 78.6082 93.74 95.2418C93.3512 116.735 93.2796 117.597 91.663 120.212C88.9448 124.608 86.1749 125.296 71.2019 125.296C60.9923 125.296 57.6661 125.55 55.1685 126.521C50.3962 128.376 47.6042 130.784 45.6607 134.719L43.9017 138.282V167.223C43.9017 195.46 43.94 196.236 45.4939 199.132C47.2699 202.442 49.9948 205.102 53.8625 207.302C56.1336 208.594 58.283 208.817 71.6807 209.146C85.5544 209.488 87.0611 209.653 88.5345 210.997C91.8128 213.985 91.8467 214.3 92.2304 244.77L92.5993 274.082L94.5878 279.559C99.597 293.355 110.023 303.183 124.327 307.594C128.487 308.877 132.811 308.959 196.266 308.959H263.779L268.944 307.246C274.13 305.527 281.108 301.704 285.109 298.39C290.283 294.105 295.579 285.782 298.218 277.792L299.933 272.597V204.698V136.798L298.224 131.667C294.489 120.455 289.336 113.357 280.723 107.564C270.006 100.355 271.249 100.519 224.304 100.079C179.831 99.6608 180.294 99.7068 178.134 95.5052C177.459 94.1925 177.081 91.1225 177.078 86.9306C177.069 73.0397 174.745 67.3161 167.587 63.5552L163.633 61.4774L135.863 61.536C120.59 61.568 107.596 61.7587 106.987 61.9598ZM35.4165 65.0038C33.7357 65.8475 32.2541 67.4571 31.1739 69.612C29.6023 72.7458 29.5137 73.7951 29.5137 89.228C29.5137 103.958 29.6547 105.826 30.9739 108.566C33.58 113.981 34.354 114.165 54.6026 114.165C74.4336 114.165 75.9986 113.862 78.6128 109.515C79.9571 107.28 80.0434 105.85 79.8723 88.6781C79.6125 62.7219 80.5953 63.7029 54.8579 63.7051C40.2855 63.7059 37.6484 63.8817 35.4165 65.0038ZM1.81141 126.375C0.0546017 128.142 0 128.523 0 138.942C0 144.852 0.303992 150.492 0.675865 151.475C1.82026 154.503 4.70153 155.114 16.5867 154.85C30.9046 154.531 30.2516 155.267 30.2516 139.443C30.2516 123.835 30.9776 124.554 15.2291 124.554C3.88917 124.554 3.58075 124.596 1.81141 126.375Z" fill="#E89F32"/>
<path d="M196.529 197.237L233.63 150.239H253.976V258.072H231.012V186.183L196.529 230.324L162.121 186.484V258.072H139.082V150.239H159.802L196.529 197.237Z" fill="white"/>
<path d="M418.455 197.062L455.947 149.784H476.507V258.258H453.301V185.942L418.455 230.345L383.685 186.244V258.258H360.404V149.784H381.342L418.455 197.062Z" fill="white"/>
<path d="M522.238 205.988C518.559 209.871 516.72 214.661 516.72 220.36C516.72 226.008 518.559 230.774 522.238 234.657C525.916 238.489 530.275 240.406 535.314 240.406C540.354 240.406 544.712 238.489 548.391 234.657C552.07 230.774 553.909 226.008 553.909 220.36C553.909 214.661 552.07 209.871 548.391 205.988C544.712 202.104 540.354 200.163 535.314 200.163C530.275 200.163 525.916 202.104 522.238 205.988ZM563.509 192.674C571.521 200.541 575.527 209.745 575.527 220.284C575.527 230.824 571.521 240.053 563.509 247.97C555.547 255.837 546.149 259.771 535.314 259.771C524.48 259.771 515.057 255.837 507.044 247.97C499.032 240.053 495.026 230.824 495.026 220.284C495.026 209.745 499.032 200.541 507.044 192.674C515.057 184.757 524.48 180.798 535.314 180.798C546.149 180.798 555.547 184.757 563.509 192.674Z" fill="white"/>
<path d="M634.335 259.771C630.001 259.771 625.944 258.888 622.165 257.123C618.436 255.308 615.79 253.517 614.228 251.752L611.885 248.954V290.785H591.023V182.311H611.885V191.615C612.087 191.313 612.389 190.934 612.792 190.48C613.246 190.027 614.153 189.194 615.513 187.984C616.924 186.723 618.436 185.614 620.048 184.656C621.661 183.647 623.752 182.765 626.322 182.008C628.892 181.201 631.563 180.798 634.335 180.798C644.161 180.798 652.677 184.631 659.883 192.296C667.14 199.911 670.768 209.24 670.768 220.284C670.768 231.328 667.14 240.683 659.883 248.348C652.677 255.963 644.161 259.771 634.335 259.771ZM643.632 205.307C640.054 201.373 635.67 199.406 630.48 199.406C625.34 199.406 620.956 201.373 617.327 205.307C613.699 209.19 611.885 214.182 611.885 220.284C611.885 226.386 613.699 231.404 617.327 235.338C620.956 239.271 625.34 241.238 630.48 241.238C635.67 241.238 640.054 239.271 643.632 235.338C647.26 231.404 649.074 226.386 649.074 220.284C649.074 214.182 647.26 209.19 643.632 205.307Z" fill="white"/>
<path d="M707.957 182.311V258.258H687.019V182.311H707.957ZM706.143 152.204C708.36 154.322 709.469 157.146 709.469 160.677C709.469 164.156 708.36 166.955 706.143 169.073C703.926 171.191 700.902 172.25 697.073 172.25C693.545 172.25 690.723 171.191 688.607 169.073C686.541 166.955 685.508 164.156 685.508 160.677C685.508 157.146 686.566 154.322 688.682 152.204C690.799 150.086 693.596 149.027 697.073 149.027C700.902 149.027 703.926 150.086 706.143 152.204Z" fill="white"/>
<path d="M758.299 234.279L742.048 258.258H719.598L745.147 219.528L721.11 182.311H744.391L758.299 204.777L772.207 182.311H795.488L771.451 219.528L797 258.258H774.55L758.299 234.279Z" fill="white"/>
</svg>
